<svg width="26" height="26" viewBox="0 0 26 26" fill="none" xmlns="http://www.w3.org/2000/svg">
<path d="M9.0325 1.63113C8.9994 1.50391 8.9917 1.37141 9.00986 1.24122C9.02801 1.11102 9.07165 0.985678 9.1383 0.872365C9.20494 0.759052 9.29326 0.659991 9.39823 0.580847C9.50319 0.501704 9.62273 0.444033 9.75 0.411133C11.8818 -0.138672 14.1182 -0.138672 16.25 0.411133C16.4861 0.471588 16.692 0.616198 16.829 0.817787C16.966 1.01938 17.0247 1.26406 16.994 1.50586C16.9633 1.74765 16.8453 1.96991 16.6623 2.13086C16.4793 2.29181 16.2437 2.38036 16 2.37988C15.9156 2.37944 15.8317 2.36853 15.75 2.34738C13.9462 1.88215 12.0538 1.88215 10.25 2.34738C9.99358 2.41353 9.7214 2.37527 9.49316 2.24099C9.26491 2.10672 9.09925 1.88739 9.0325 1.63113ZM3.72375 3.89238C2.18206 5.46229 1.06384 7.39766 0.473752 9.51738C0.402972 9.77299 0.436629 10.0462 0.567319 10.277C0.698008 10.5078 0.915025 10.6772 1.17063 10.748C1.42623 10.8188 1.69948 10.7851 1.93027 10.6544C2.16105 10.5238 2.33047 10.3067 2.40125 10.0511C2.90009 8.25685 3.84632 6.61858 5.15125 5.28988C5.32194 5.09789 5.41218 4.84757 5.40328 4.59082C5.39438 4.33408 5.28701 4.09061 5.10344 3.9109C4.91987 3.73118 4.67418 3.62901 4.4173 3.62556C4.16043 3.62212 3.91208 3.71766 3.72375 3.89238ZM2.40125 15.9436C2.36612 15.8171 2.30641 15.6987 2.22552 15.5952C2.14464 15.4917 2.04416 15.4052 1.92982 15.3405C1.81549 15.2759 1.68955 15.2344 1.55918 15.2184C1.4288 15.2024 1.29656 15.2123 1.17 15.2474C1.04344 15.2825 0.925037 15.3422 0.821553 15.4231C0.718069 15.504 0.63153 15.6045 0.566877 15.7188C0.502224 15.8331 0.460724 15.9591 0.444745 16.0895C0.428767 16.2198 0.438623 16.3521 0.473752 16.4786C1.0642 18.5982 2.18236 20.5335 3.72375 22.1036C3.90974 22.2928 4.16323 22.4003 4.42848 22.4025C4.69373 22.4047 4.94899 22.3015 5.13813 22.1155C5.32726 21.9295 5.43476 21.676 5.43699 21.4108C5.43922 21.1455 5.33598 20.8903 5.15 20.7011C3.84668 19.3729 2.90102 17.7362 2.40125 15.9436ZM15.75 23.6524C13.9462 24.1181 12.0538 24.1181 10.25 23.6524C10.1221 23.6173 9.98854 23.6079 9.85703 23.6249C9.72551 23.6419 9.59869 23.6849 9.48394 23.7514C9.3692 23.8178 9.26882 23.9065 9.18864 24.0121C9.10847 24.1177 9.05011 24.2383 9.01695 24.3667C8.9838 24.4951 8.97651 24.6288 8.99551 24.76C9.01452 24.8912 9.05944 25.0174 9.12766 25.1311C9.19587 25.2448 9.28603 25.3438 9.39287 25.4224C9.49971 25.5009 9.62111 25.5574 9.75 25.5886C11.8818 26.1384 14.1182 26.1384 16.25 25.5886C16.5032 25.5191 16.7189 25.3528 16.8505 25.1256C16.9821 24.8984 17.0191 24.6285 16.9534 24.3743C16.8878 24.1201 16.7248 23.9019 16.4996 23.7668C16.2745 23.6317 16.0052 23.5906 15.75 23.6524ZM24.8313 15.2499C24.7046 15.2148 24.5723 15.2049 24.4418 15.221C24.3114 15.237 24.1854 15.2786 24.071 15.3434C23.9567 15.4082 23.8562 15.4949 23.7754 15.5985C23.6946 15.7021 23.635 15.8207 23.6 15.9474C23.1014 17.7414 22.1552 19.3793 20.85 20.7074C20.758 20.8011 20.6854 20.9121 20.6362 21.0339C20.5871 21.1557 20.5624 21.286 20.5636 21.4173C20.5649 21.5486 20.5919 21.6784 20.6433 21.7993C20.6947 21.9202 20.7694 22.0298 20.8631 22.1218C20.9569 22.2138 21.0678 22.2864 21.1896 22.3355C21.3114 22.3847 21.4417 22.4093 21.573 22.4081C21.7044 22.4069 21.8342 22.3798 21.9551 22.3284C22.0759 22.2771 22.1855 22.2024 22.2775 22.1086C23.8194 20.5389 24.9377 18.6035 25.5275 16.4836C25.563 16.3569 25.5732 16.2244 25.5574 16.0938C25.5416 15.9631 25.5002 15.8368 25.4355 15.7222C25.3708 15.6076 25.2842 15.5069 25.1805 15.4258C25.0768 15.3448 24.9581 15.285 24.8313 15.2499ZM23.5988 10.0574C23.6339 10.1839 23.6936 10.3023 23.7745 10.4058C23.8554 10.5093 23.9558 10.5959 24.0702 10.6605C24.1845 10.7252 24.3105 10.7667 24.4408 10.7826C24.5712 10.7986 24.7034 10.7888 24.83 10.7536C24.9566 10.7185 25.075 10.6588 25.1785 10.5779C25.2819 10.497 25.3685 10.3965 25.4331 10.2822C25.4978 10.1679 25.5393 10.0419 25.5553 9.91156C25.5712 9.78119 25.5614 9.64894 25.5263 9.52238C24.9364 7.40255 23.8182 5.46712 22.2763 3.89738C22.1842 3.80373 22.0745 3.72914 21.9536 3.67786C21.8327 3.62658 21.7029 3.59962 21.5715 3.59852C21.4402 3.59742 21.3099 3.62219 21.1882 3.67143C21.0664 3.72068 20.9555 3.79342 20.8619 3.88551C20.7682 3.9776 20.6936 4.08723 20.6424 4.20815C20.5911 4.32907 20.5641 4.4589 20.563 4.59024C20.5619 4.72157 20.5867 4.85184 20.6359 4.9736C20.6852 5.09536 20.7579 5.20623 20.85 5.29988C22.1538 6.62732 23.0995 8.26376 23.5988 10.0561V10.0574Z" fill="#F3766D"/>
</svg>
